<svg version="1.1" viewBox="0.0 0.0 600.0 600.0" fill="none" stroke="none" stroke-linecap="square" stroke-miterlimit="10" xmlns:xlink="http://www.w3.org/1999/xlink" xmlns="http://www.w3.org/2000/svg"><clipPath id="p.0"><path d="m0 0l600.0 0l0 600.0l-600.0 0l0 -600.0z" clip-rule="nonzero"/></clipPath><g clip-path="url(#p.0)"><path fill="#000000" fill-opacity="0.0" d="m0 0l600.0 0l0 600.0l-600.0 0z" fill-rule="evenodd"/><path fill="#000000" fill-opacity="0.7" d="m172.89764 180.0l0 0c0 -70.19669 56.905655 -127.10236 127.102356 -127.10236l0 0c33.709656 0 66.038635 13.391106 89.87494 37.227425c23.836334 23.836311 37.227417 56.1653 37.227417 89.87494l0 0c0 70.1967 -56.90567 127.102356 -127.102356 127.102356l0 0c-70.1967 0 -127.102356 -56.905655 -127.102356 -127.102356z" fill-rule="evenodd"/><path fill="#000000" fill-opacity="0.7" d="m-15.543307 686.7097l0 0c0 -159.47546 141.27354 -288.7559 315.5433 -288.7559l0 0c174.26974 0 315.54333 129.28043 315.54333 288.7559l0 0c0 159.47552 -141.27359 288.75592 -315.54333 288.75592l0 0c-174.26976 0 -315.5433 -129.2804 -315.5433 -288.75592z" fill-rule="evenodd"/></g></svg>